<?xml version="1.0" encoding="UTF-8"?>
<!DOCTYPE svg PUBLIC "-//W3C//DTD SVG 1.1//EN" "http://www.w3.org/Graphics/SVG/1.1/DTD/svg11.dtd">
<svg xmlns="http://www.w3.org/2000/svg" version="1.1" width="1106px" height="225px" style="shape-rendering:geometricPrecision; text-rendering:geometricPrecision; image-rendering:optimizeQuality; fill-rule:evenodd; clip-rule:evenodd" xmlns:xlink="http://www.w3.org/1999/xlink">
<g><path style="opacity:0.989" fill="#f0f3f7" d="M 95.5,8.5 C 140.027,4.95407 174.527,21.6207 199,58.5C 222.029,101.568 218.529,142.235 188.5,180.5C 176.166,194.662 161.166,204.829 143.5,211C 141.421,211.808 139.421,211.641 137.5,210.5C 135.201,206.648 134.201,202.648 134.5,198.5C 167.604,187.4 188.604,165.067 197.5,131.5C 191.872,130.505 186.206,130.171 180.5,130.5C 180.5,137.167 180.5,143.833 180.5,150.5C 167.5,150.5 154.5,150.5 141.5,150.5C 141.333,130.831 141.5,111.164 142,91.5C 153.833,79 165.667,66.5 177.5,54C 176,51.8333 174.167,50 172,48.5C 160.028,61.474 148.028,74.474 136,87.5C 135.5,107.164 135.333,126.831 135.5,146.5C 118.163,146.333 100.83,146.5 83.5,147C 77.2467,152.298 72.08,151.465 68,144.5C 66.331,137.505 68.9977,133.172 76,131.5C 78.9768,131.988 81.4768,133.322 83.5,135.5C 97.198,136.252 110.865,136.585 124.5,136.5C 124.333,119.163 124.5,101.83 125,84.5C 128.465,80.0332 132.298,75.8666 136.5,72C 132.196,66.8689 127.196,62.7022 121.5,59.5C 116.433,61.4029 113.933,65.0696 114,70.5C 111.549,76.0891 107.383,77.9224 101.5,76C 93.701,70.4145 93.5343,64.5811 101,58.5C 112.903,55.6031 118.069,48.1031 116.5,36C 116.486,31.5853 116.152,27.252 115.5,23C 111.16,22.5828 106.827,22.7494 102.5,23.5C 99.9886,23.712 97.8219,23.0454 96,21.5C 94.9803,18.4011 93.8136,15.4011 92.5,12.5C 92.7867,10.5567 93.7867,9.22335 95.5,8.5 Z M 127.5,24.5 C 140.797,27.8145 153.13,33.3145 164.5,41C 158.011,49.1546 151.177,56.9879 144,64.5C 138.333,59.5 132.667,54.5 127,49.5C 127.37,41.2122 127.536,32.8788 127.5,24.5 Z M 182.5,62.5 C 183.496,62.4142 184.329,62.7476 185,63.5C 195.535,80.6435 200.202,98.9769 199,118.5C 189.911,119.319 180.744,119.819 171.5,120C 170.521,126.744 170.188,133.578 170.5,140.5C 164.5,140.5 158.5,140.5 152.5,140.5C 152.167,125.152 152.501,109.819 153.5,94.5C 157,90.8333 160.5,87.1667 164,83.5C 166.843,88.5188 170.176,93.1855 174,97.5C 174.481,107.165 179.314,110.832 188.5,108.5C 195.354,102.264 195.02,96.431 187.5,91C 185.1,90.8142 182.766,90.3142 180.5,89.5C 177.618,84.8972 174.618,80.3972 171.5,76C 175.389,71.6181 179.056,67.1181 182.5,62.5 Z"/></g>
<g><path style="opacity:0.991" fill="#f1f2f8" d="M 135.5,158.5 C 134.532,160.607 134.198,162.941 134.5,165.5C 139.363,165.819 144.03,165.486 148.5,164.5C 152.509,159.646 157.009,159.313 162,163.5C 166.688,171.375 164.688,176.708 156,179.5C 153.201,179.18 150.701,178.18 148.5,176.5C 144.217,175.508 139.884,175.174 135.5,175.5C 135.5,179.5 135.5,183.5 135.5,187.5C 125.828,187.334 116.161,187.5 106.5,188C 103.019,192.315 99.3527,196.482 95.5,200.5C 103.888,202.655 112.221,202.655 120.5,200.5C 122.197,201.364 123.363,202.697 124,204.5C 125.167,207.5 126.333,210.5 127.5,213.5C 80.1874,220.933 43.6874,204.266 18,163.5C 0.0539628,129.557 0.0539628,95.5575 18,61.5C 29.5966,41.734 45.7633,27.0673 66.5,17.5C 70.7334,8.14719 77.4001,5.98053 86.5,11C 92.0736,20.0041 90.0736,26.6708 80.5,31C 75.1197,29.744 70.2864,30.9107 66,34.5C 65.5007,39.4889 65.3341,44.4889 65.5,49.5C 73.9392,48.884 82.1058,49.5506 90,51.5C 90.4721,57.6742 90.3055,63.8408 89.5,70C 89.8333,72.1667 90.1667,74.3333 90.5,76.5C 91.7989,77.09 92.6322,78.09 93,79.5C 94.8333,89.6667 90.6667,93.8333 80.5,92C 74.4642,87.4085 73.9642,82.2418 79,76.5C 79.4994,70.8431 79.6661,65.1764 79.5,59.5C 74.8333,59.5 70.1667,59.5 65.5,59.5C 65.6164,69.9168 65.4497,80.2501 65,90.5C 72.5258,97.3617 80.0258,104.195 87.5,111C 93.1018,111.232 98.7684,111.399 104.5,111.5C 108.913,107.322 113.913,106.489 119.5,109C 124.713,116.792 123.046,122.626 114.5,126.5C 111.379,125.774 108.713,124.274 106.5,122C 99.1667,121.667 91.8333,121.333 84.5,121C 80.5969,117.05 76.2636,114.05 71.5,112C 66.0157,115.968 62.349,121.134 60.5,127.5C 61.4156,139.123 61.5823,150.456 61,161.5C 55.3015,164.687 50.4682,169.353 46.5,175.5C 49.6593,179.492 53.326,182.992 57.5,186C 65.5999,190.926 74.0999,195.092 83,198.5C 89.1667,191.667 95.3333,184.833 101.5,178C 109.159,177.5 116.826,177.334 124.5,177.5C 124.5,172.833 124.5,168.167 124.5,163.5C 113.448,163.811 102.448,163.478 91.5,162.5C 85.7293,166.074 82.2293,171.074 81,177.5C 78.5493,183.089 74.3826,184.922 68.5,183C 60.4164,176.629 60.7498,170.629 69.5,165C 71.5767,164.808 73.5767,164.308 75.5,163.5C 79.1949,159.474 82.8616,155.474 86.5,151.5C 101.841,152.612 117.174,152.612 132.5,151.5C 135.029,153.063 136.029,155.396 135.5,158.5 Z M 52.5,42.5 C 54.3237,61.474 55.1571,80.8074 55,100.5C 58.6088,100.846 61.7755,102.179 64.5,104.5C 59.8435,109.325 55.3435,114.325 51,119.5C 51.4076,123.818 51.5743,127.984 51.5,132C 49.8333,132.667 48.1667,132.667 46.5,132C 42.1456,126.746 37.3123,126.246 32,130.5C 27.2056,141.365 30.7056,146.531 42.5,146C 44.674,143.648 47.3407,142.481 50.5,142.5C 50.6751,146.541 50.8418,150.541 51,154.5C 46.7673,158.643 42.7673,162.977 39,167.5C 26.241,151.507 19.741,133.174 19.5,112.5C 19.7556,100.075 22.0889,88.0749 26.5,76.5C 29.1667,76.5 31.8333,76.5 34.5,76.5C 34.6664,84.5069 34.4997,92.5069 34,100.5C 30.5875,104.135 29.5875,108.468 31,113.5C 36.3333,118.833 41.6667,118.833 47,113.5C 49.222,109.164 48.722,105.164 45.5,101.5C 44.8333,89.8333 44.1667,78.1667 43.5,66.5C 40.0027,66.4724 36.336,66.3057 32.5,66C 38.2815,57.3874 44.9481,49.5541 52.5,42.5 Z"/></g>
<g><path style="opacity:0.998" fill="#f6f7f8" d="M 951.5,34.5 C 960.932,33.8778 970.099,34.5445 979,36.5C 979.5,57.4974 979.667,78.4974 979.5,99.5C 989.526,100.784 996.359,96.7836 1000,87.5C 1000.19,81.5845 1000.69,75.7512 1001.5,70C 1003.58,69.1313 1005.75,68.6313 1008,68.5C 1015.06,68.9821 1022.06,69.3154 1029,69.5C 1031.15,86.5913 1026.65,101.591 1015.5,114.5C 1023.25,128.669 1030.42,143.002 1037,157.5C 1025.86,158.825 1014.7,158.825 1003.5,157.5C 995.4,142.301 987.567,126.967 980,111.5C 979.818,126.878 979.318,142.211 978.5,157.5C 969.518,158.665 960.518,158.832 951.5,158C 950.169,116.833 950.169,75.6667 951.5,34.5 Z"/></g>
<g><path style="opacity:0.99" fill="#f8f9fb" d="M 630.5,48.5 C 639.833,48.5 649.167,48.5 658.5,48.5C 658.5,56.1667 658.5,63.8333 658.5,71.5C 666.42,71.185 674.253,71.5183 682,72.5C 682.5,81.1603 682.666,89.8269 682.5,98.5C 674.5,98.5 666.5,98.5 658.5,98.5C 658.334,105.841 658.5,113.174 659,120.5C 660.833,125.667 664.333,129.167 669.5,131C 675.268,132.389 680.934,132.889 686.5,132.5C 687.665,140.813 687.832,149.147 687,157.5C 667.046,161.51 650.38,155.51 637,139.5C 633.177,133.348 630.844,126.681 630,119.5C 629.178,95.7608 629.344,72.0942 630.5,48.5 Z"/></g>
<g><path style="opacity:0.996" fill="#f8f9fb" d="M 368.5,68.5 C 382.683,67.1666 395.683,70.3333 407.5,78C 417.521,88.7031 419.021,100.536 412,113.5C 397.79,126.578 381.456,130.245 363,124.5C 361.273,124.646 361.106,125.313 362.5,126.5C 364.713,128.774 367.379,130.274 370.5,131C 374.039,131.282 377.539,131.782 381,132.5C 390.498,131.526 399.998,130.526 409.5,129.5C 409.831,138.192 409.498,146.859 408.5,155.5C 392.956,160.013 377.289,160.513 361.5,157C 337.708,148.603 327.208,131.77 330,106.5C 334.474,85.1912 347.308,72.5245 368.5,68.5 Z M 368.5,96.5 C 374.176,96.3339 379.843,96.5006 385.5,97C 387.325,98.4659 387.825,100.299 387,102.5C 379.483,104.784 371.816,105.118 364,103.5C 363.167,103.167 362.333,102.833 361.5,102.5C 363.678,100.255 366.012,98.2553 368.5,96.5 Z"/></g>
<g><path style="opacity:0.998" fill="#f8fafb" d="M 465.5,68.5 C 486.967,65.6953 503.801,73.0287 516,90.5C 527.803,118.756 520.636,140.59 494.5,156C 480.732,161.698 467.899,160.198 456,151.5C 455.667,165.167 455.333,178.833 455,192.5C 446.245,193.65 437.412,193.816 428.5,193C 427.726,190.595 427.226,188.095 427,185.5C 426.333,162.833 426.333,140.167 427,117.5C 426.719,90.6365 439.553,74.3032 465.5,68.5 Z M 471.5,94.5 C 487.135,94.3007 494.302,101.967 493,117.5C 491.861,125.972 487.028,130.806 478.5,132C 463.589,134.421 455.922,128.088 455.5,113C 456.117,102.525 461.45,96.3581 471.5,94.5 Z"/></g>
<g><path style="opacity:0.997" fill="#f9fafb" d="M 565.5,68.5 C 583.982,66.3793 599.482,72.046 612,85.5C 621.309,100.651 622.975,116.651 617,133.5C 603.466,155.775 583.966,163.609 558.5,157C 534.727,148.649 524.227,131.815 527,106.5C 531.168,85.0084 544.001,72.3417 565.5,68.5 Z M 570.5,94.5 C 587.639,94.8121 594.805,103.479 592,120.5C 588.537,128.951 582.203,132.951 573,132.5C 565.051,132.359 559.384,128.692 556,121.5C 552.07,107.338 556.904,98.3382 570.5,94.5 Z"/></g>
<g><path style="opacity:0.985" fill="#fafbfc" d="M 736.5,68.5 C 741.511,68.3341 746.511,68.5007 751.5,69C 752,69.5 752.5,70 753,70.5C 754.339,78.4904 754.339,86.8238 753,95.5C 747.249,96.3104 741.416,96.8104 735.5,97C 728.293,99.2026 724.459,104.036 724,111.5C 723.5,127.163 723.333,142.83 723.5,158.5C 714.249,158.818 705.083,158.485 696,157.5C 695.691,156.234 695.191,155.067 694.5,154C 695.325,138.241 695.825,122.407 696,106.5C 698.376,89.5803 707.542,78.0803 723.5,72C 727.86,70.4171 732.194,69.2505 736.5,68.5 Z"/></g>
<g><path style="opacity:0.997" fill="#f9fafb" d="M 795.5,68.5 C 809.726,66.8078 822.726,69.8078 834.5,77.5C 842.201,84.2291 847.367,92.5624 850,102.5C 850.889,114.845 851.889,127.178 853,139.5C 854.524,145.864 856.024,152.197 857.5,158.5C 848.494,158.666 839.494,158.5 830.5,158C 828.622,154.326 827.122,150.493 826,146.5C 818.512,155.989 808.679,160.155 796.5,159C 769.079,152.898 755.912,135.732 757,107.5C 761.387,85.9475 774.22,72.9475 795.5,68.5 Z M 801.5,94.5 C 810.367,93.5153 816.867,96.8486 821,104.5C 825.863,125.973 817.363,134.806 795.5,131C 788.19,127.506 784.857,121.673 785.5,113.5C 785.856,102.821 791.189,96.4878 801.5,94.5 Z"/></g>
<g><path style="opacity:0.993" fill="#f9fafb" d="M 900.5,68.5 C 909.541,68.2829 918.541,68.7829 927.5,70C 931.076,70.1903 934.242,71.357 937,73.5C 937.804,82.2151 937.637,90.8818 936.5,99.5C 936,99.8333 935.5,100.167 935,100.5C 923.795,95.1694 912.295,94.0027 900.5,97C 892.817,100.031 889.15,105.698 889.5,114C 890.904,127.393 898.404,133.56 912,132.5C 919.998,132.28 927.665,130.613 935,127.5C 935.5,127.833 936,128.167 936.5,128.5C 937.286,136.187 937.62,143.853 937.5,151.5C 936.926,153.059 936.26,154.559 935.5,156C 920.884,159.915 906.217,160.248 891.5,157C 868.393,147.637 858.56,130.47 862,105.5C 866.498,84.5023 879.331,72.1689 900.5,68.5 Z"/></g>
<g><path style="opacity:0.993" fill="#f8f8fb" d="M 1084.5,68.5 C 1089.76,68.1953 1094.93,68.5286 1100,69.5C 1101.61,78.0638 1101.94,86.7305 1101,95.5C 1095.25,96.3104 1089.42,96.8104 1083.5,97C 1075.29,100.075 1071.29,106.075 1071.5,115C 1072.49,128.685 1072.65,142.518 1072,156.5C 1071.5,157 1071,157.5 1070.5,158C 1061.83,158.667 1053.17,158.667 1044.5,158C 1043.34,140.574 1043.18,123.074 1044,105.5C 1049.26,84.123 1062.76,71.7897 1084.5,68.5 Z"/></g>
<g><path style="opacity:0.998" fill="#f6f8fa" d="M 311.5,68.5 C 316.179,68.3342 320.845,68.5008 325.5,69C 326.416,69.3742 327.25,69.8742 328,70.5C 328.5,79.1603 328.666,87.8269 328.5,96.5C 322.824,96.3339 317.157,96.5006 311.5,97C 306.685,98.31 303.185,101.143 301,105.5C 299.708,122.767 299.041,140.101 299,157.5C 289.667,158.833 280.333,158.833 271,157.5C 270.333,142.5 270.333,127.5 271,112.5C 273.258,87.4107 286.758,72.7441 311.5,68.5 Z"/></g>
<g><path style="opacity:0.043" fill="#5e6f93" d="M 135.5,158.5 C 135.5,160.5 135.5,162.5 135.5,164.5C 139.833,164.5 144.167,164.5 148.5,164.5C 144.03,165.486 139.363,165.819 134.5,165.5C 134.198,162.941 134.532,160.607 135.5,158.5 Z"/></g>
</svg>
