<?xml version="1.0" encoding="UTF-8"?>
<!DOCTYPE svg PUBLIC "-//W3C//DTD SVG 1.1//EN" "http://www.w3.org/Graphics/SVG/1.1/DTD/svg11.dtd">
<svg xmlns="http://www.w3.org/2000/svg" version="1.1" width="500px" height="500px" style="shape-rendering:geometricPrecision; text-rendering:geometricPrecision; image-rendering:optimizeQuality; fill-rule:evenodd; clip-rule:evenodd" xmlns:xlink="http://www.w3.org/1999/xlink">
<g><path style="opacity:0.997" fill="#f7f8fa" d="M 193.5,449.5 C 192.11,452.251 190.11,454.751 187.5,457C 190.264,458.544 190.097,459.711 187,460.5C 185.875,464.553 184.375,468.386 182.5,472C 178.495,473.098 174.995,472.265 172,469.5C 170.374,469.854 168.541,469.854 166.5,469.5C 107.463,446.978 63.6294,407.311 35,350.5C 11.4864,300.062 5.81971,247.729 18,193.5C 41.8286,104.34 97.6619,45.8404 185.5,18C 219.424,9.29747 253.591,7.79747 288,13.5C 288.667,14.8333 288.667,16.1667 288,17.5C 284.219,25.393 280.719,33.393 277.5,41.5C 273.812,42.6195 270.146,42.4529 266.5,41C 255.172,40.5001 243.838,40.3335 232.5,40.5C 232.333,60.5028 232.5,80.5028 233,100.5C 239.805,107.974 246.638,115.474 253.5,123C 268.476,122.317 277.142,129.317 279.5,144C 274.983,161.511 264.317,166.844 247.5,160C 240.786,153.688 237.452,145.854 237.5,136.5C 234.683,133.182 231.683,130.015 228.5,127C 223.603,124.768 218.937,125.101 214.5,128C 204.833,136.5 195.167,145 185.5,153.5C 194.898,163.892 204.231,174.225 213.5,184.5C 212.34,223.792 212.173,263.125 213,302.5C 242.267,302.388 271.6,302.722 301,303.5C 303.5,303.167 306,302.833 308.5,302.5C 318.061,290.781 328.561,289.781 340,299.5C 347.975,310.393 347.141,320.559 337.5,330C 326.422,335.968 316.755,334.302 308.5,325C 269.833,324.667 231.167,324.333 192.5,324C 192.499,278.087 192.333,233.92 192,191.5C 163.582,160.256 135.082,129.256 106.5,98.5C 101.315,102.851 96.6486,107.684 92.5,113C 115.44,137.697 138.274,162.53 161,187.5C 165.34,192.173 170.006,196.506 175,200.5C 175.5,244.832 175.667,289.165 175.5,333.5C 146.167,333.5 116.833,333.5 87.5,333.5C 87.1756,317.922 87.509,302.422 88.5,287C 74.8333,286.333 61.1667,286.333 47.5,287C 46.9781,287.561 46.6448,288.228 46.5,289C 65.8178,368.65 114.484,420.984 192.5,446C 194.495,446.924 194.828,448.09 193.5,449.5 Z M 206.5,44.5 C 207.833,44.5 209.167,44.5 210.5,44.5C 210.667,64.1695 210.5,83.8362 210,103.5C 197.477,115.28 184.477,126.613 171,137.5C 154.672,120.004 138.505,102.337 122.5,84.5C 147.487,64.8379 175.487,51.5045 206.5,44.5 Z M 153.5,305.5 C 153.5,307.833 153.5,310.167 153.5,312.5C 138.5,312.5 123.5,312.5 108.5,312.5C 108.748,297.165 108.748,281.498 108.5,265.5C 86.8333,265.5 65.1667,265.5 43.5,265.5C 39.4289,216.045 51.4289,171.045 79.5,130.5C 90.543,141.209 100.876,152.542 110.5,164.5C 101.911,176.678 93.0775,188.678 84,200.5C 72.353,197.662 64.353,201.995 60,213.5C 58.0272,228.91 64.6938,237.576 80,239.5C 93.494,237.02 99.8274,229.02 99,215.5C 107.529,203.978 116.029,192.478 124.5,181C 125.167,180.333 125.833,180.333 126.5,181C 135.431,190.322 144.264,199.822 153,209.5C 153.564,212.155 154.064,214.821 154.5,217.5C 153.552,246.598 153.218,275.932 153.5,305.5 Z"/></g>
<g><path style="opacity:0.997" fill="#f8f9fb" d="M 319.5,473.5 C 315.077,473.626 310.744,474.293 306.5,475.5C 305.914,475.291 305.414,474.957 305,474.5C 303.604,476.527 301.938,476.86 300,475.5C 299.5,476.667 298.667,477.5 297.5,478C 288.529,479.434 279.862,481.267 271.5,483.5C 264.696,484.652 257.696,485.319 250.5,485.5C 237.793,484.784 225.126,483.618 212.5,482C 211.584,481.626 210.75,481.126 210,480.5C 212.264,473.043 214.931,465.709 218,458.5C 218.792,456.413 219.959,454.579 221.5,453C 237.124,454.251 252.79,454.584 268.5,454C 273.47,453.114 278.47,452.448 283.5,452C 283.957,451.586 284.291,451.086 284.5,450.5C 275.314,440.482 266.314,430.315 257.5,420C 235.826,419.833 214.159,419.333 192.5,418.5C 191.527,409.22 191.193,399.887 191.5,390.5C 192.167,390.5 192.5,390.167 192.5,389.5C 192.631,388.761 192.464,388.094 192,387.5C 189.814,388.022 187.481,388.022 185,387.5C 178.935,389.118 172.769,390.118 166.5,390.5C 165.178,390.67 164.011,390.337 163,389.5C 157.088,398.369 148.921,401.536 138.5,399C 126.931,393.585 123.098,384.752 127,372.5C 133.917,360.312 143.751,357.145 156.5,363C 158.706,365.037 160.706,367.203 162.5,369.5C 172.319,370.494 182.319,370.827 192.5,370.5C 192.5,360.833 192.5,351.167 192.5,341.5C 230.331,340.336 268.331,340.169 306.5,341C 307.249,342.734 307.749,344.567 308,346.5C 315.06,354.138 322.227,361.638 329.5,369C 347.462,368.957 355.629,377.791 354,395.5C 347.184,408.772 337.017,412.272 323.5,406C 316.838,400.025 313.672,392.525 314,383.5C 307.504,376.004 300.671,368.837 293.5,362C 269.5,361.678 245.833,361.511 222.5,361.5C 219.061,361.554 215.894,362.22 213,363.5C 213.276,375.253 213.443,386.587 213.5,397.5C 212.957,397.56 212.624,397.893 212.5,398.5C 221.667,398.833 230.833,399.167 240,399.5C 250.04,399.135 259.874,399.135 269.5,399.5C 269.709,400.922 270.209,402.255 271,403.5C 276.362,409.526 281.695,415.526 287,421.5C 294.548,429.907 302.548,437.907 311,445.5C 342.184,434.91 369.684,418.41 393.5,396C 395.124,394.883 396.124,393.383 396.5,391.5C 387.602,381.428 378.436,371.428 369,361.5C 366.667,362.833 364.333,362.833 362,361.5C 362.444,331.498 362.444,301.831 362,272.5C 353.537,262.368 344.704,252.535 335.5,243C 334.833,242.333 334.167,242.333 333.5,243C 324.981,250.687 316.314,258.187 307.5,265.5C 305.833,265.833 304.167,266.167 302.5,266.5C 287.179,267.252 271.845,267.752 256.5,268C 247.007,279.731 236.507,280.565 225,270.5C 218.1,259.324 219.267,249.158 228.5,240C 239.826,233.952 249.493,235.952 257.5,246C 258.333,246.167 259.167,246.333 260,246.5C 270.769,246.452 281.602,246.118 292.5,245.5C 294.382,246.093 296.215,246.76 298,247.5C 316.026,231.138 334.026,214.805 352,198.5C 352.667,174.5 352.667,150.5 352,126.5C 340.581,125.512 329.081,125.179 317.5,125.5C 317.333,138.504 317.5,151.504 318,164.5C 328.686,174.859 329.186,185.693 319.5,197C 307.627,204.248 297.461,202.414 289,191.5C 284.361,181.324 286.194,172.657 294.5,165.5C 296.488,145.861 297.155,125.861 296.5,105.5C 296.918,104.778 297.584,104.278 298.5,104C 316.531,103.207 334.531,103.373 352.5,104.5C 352.667,92.4954 352.5,80.4954 352,68.5C 345.883,64.8595 339.716,61.3595 333.5,58C 329.254,57.6325 325.087,58.1325 321,59.5C 301.935,56.745 293.935,45.745 297,26.5C 300.792,15.3457 308.625,9.67902 320.5,9.5C 333.802,10.3039 342.135,17.1373 345.5,30C 415.719,63.2237 460.886,117.39 481,192.5C 498.783,280.599 476.283,356.266 413.5,419.5C 391.386,440.218 366.386,456.384 338.5,468C 332.281,470.352 325.947,472.186 319.5,473.5 Z M 383.5,346.5 C 383.5,336.167 383.5,325.833 383.5,315.5C 386.833,315.5 390.167,315.5 393.5,315.5C 403.594,326.675 414.428,327.342 426,317.5C 431.993,308.795 431.993,300.128 426,291.5C 414.341,281.621 403.341,282.288 393,293.5C 390.624,292.91 388.457,292.91 386.5,293.5C 385.5,293.5 384.5,293.5 383.5,293.5C 383.827,283.319 383.494,273.319 382.5,263.5C 372.19,251.473 361.523,239.64 350.5,228C 353.463,226.039 356.129,223.706 358.5,221C 363.75,220.807 368.917,220.307 374,219.5C 373.781,173.835 373.781,128.168 374,82.5C 395.684,98.5157 413.517,118.016 427.5,141C 418.5,141.5 409.5,142 400.5,142.5C 399.388,167.851 399.388,193.184 400.5,218.5C 398.597,221.911 396.097,224.911 393,227.5C 387.152,248.313 394.985,258.147 416.5,257C 430.369,250.425 433.869,240.258 427,226.5C 425.333,224.833 423.667,223.167 422,221.5C 421.5,202.17 421.333,182.836 421.5,163.5C 427.5,163.5 433.5,163.5 439.5,163.5C 466.096,229.758 461.596,293.758 426,355.5C 421.5,362 417,368.5 412.5,375C 411.833,375.667 411.167,375.667 410.5,375C 401.578,365.249 392.578,355.749 383.5,346.5 Z"/></g>
<g><path style="opacity:0.008" fill="#76777b" d="M 296.5,105.5 C 297.155,125.861 296.488,145.861 294.5,165.5C 295.155,145.402 295.822,125.402 296.5,105.5 Z"/></g>
<g><path style="opacity:0.035" fill="#98a8b6" d="M 382.5,263.5 C 383.494,273.319 383.827,283.319 383.5,293.5C 384.5,293.5 385.5,293.5 386.5,293.5C 385.432,294.434 384.099,294.768 382.5,294.5C 382.5,284.167 382.5,273.833 382.5,263.5 Z"/></g>
<g><path style="opacity:0.031" fill="#53587c" d="M 153.5,305.5 C 154.473,307.948 154.806,310.615 154.5,313.5C 138.991,313.83 123.658,313.496 108.5,312.5C 123.5,312.5 138.5,312.5 153.5,312.5C 153.5,310.167 153.5,307.833 153.5,305.5 Z"/></g>
<g><path style="opacity:0.027" fill="#8d96b1" d="M 393.5,315.5 C 390.167,315.5 386.833,315.5 383.5,315.5C 383.5,325.833 383.5,336.167 383.5,346.5C 382.506,336.013 382.172,325.346 382.5,314.5C 386.371,314.185 390.038,314.518 393.5,315.5 Z"/></g>
<g><path style="opacity:0.137" fill="#8c95b6" d="M 192.5,341.5 C 192.5,351.167 192.5,360.833 192.5,370.5C 182.319,370.827 172.319,370.494 162.5,369.5C 172.167,369.5 181.833,369.5 191.5,369.5C 191.173,359.985 191.506,350.652 192.5,341.5 Z"/></g>
<g><path style="opacity:0.71" fill="#cfcbf8" d="M 192.5,389.5 C 191.833,389.5 191.5,389.833 191.5,390.5C 183.167,390.5 174.833,390.5 166.5,390.5C 172.769,390.118 178.935,389.118 185,387.5C 187.481,388.022 189.814,388.022 192,387.5C 192.464,388.094 192.631,388.761 192.5,389.5 Z"/></g>
<g><path style="opacity:0.772" fill="#d2d9e8" d="M 269.5,399.5 C 259.874,399.135 250.04,399.135 240,399.5C 230.833,399.167 221.667,398.833 212.5,398.5C 212.624,397.893 212.957,397.56 213.5,397.5C 230.411,397.825 247.244,397.492 264,396.5C 266.326,396.88 268.159,397.88 269.5,399.5 Z"/></g>
<g><path style="opacity:0.573" fill="#ced3ed" d="M 193.5,449.5 C 190.895,458.223 187.561,466.723 183.5,475C 177.474,474.244 171.807,472.411 166.5,469.5C 168.541,469.854 170.374,469.854 172,469.5C 174.995,472.265 178.495,473.098 182.5,472C 184.375,468.386 185.875,464.553 187,460.5C 190.097,459.711 190.264,458.544 187.5,457C 190.11,454.751 192.11,452.251 193.5,449.5 Z"/></g>
<g><path style="opacity:0.872" fill="#cfd8e6" d="M 319.5,473.5 C 304.213,479.465 288.213,482.799 271.5,483.5C 279.862,481.267 288.529,479.434 297.5,478C 298.667,477.5 299.5,476.667 300,475.5C 301.938,476.86 303.604,476.527 305,474.5C 305.414,474.957 305.914,475.291 306.5,475.5C 310.744,474.293 315.077,473.626 319.5,473.5 Z"/></g>
</svg>
